<svg width="214" height="41" viewBox="0 0 214 41" fill="none" xmlns="http://www.w3.org/2000/svg">
<rect width="214" height="41" rx="20.5" fill="#F4F7FE"/>
<path d="M46.158 26.168C45.4393 26.168 44.814 26.0373 44.282 25.776C43.75 25.5147 43.3393 25.1507 43.05 24.684C42.7607 24.2173 42.616 23.676 42.616 23.06H43.848C43.848 23.4427 43.9367 23.7973 44.114 24.124C44.2913 24.4413 44.548 24.698 44.884 24.894C45.2293 25.0807 45.654 25.174 46.158 25.174C46.8207 25.174 47.334 25.0153 47.698 24.698C48.062 24.3807 48.244 23.984 48.244 23.508C48.244 23.116 48.16 22.8033 47.992 22.57C47.824 22.3273 47.5953 22.1313 47.306 21.982C47.026 21.8327 46.6993 21.702 46.326 21.59C45.962 21.478 45.5793 21.352 45.178 21.212C44.422 20.9507 43.862 20.6287 43.498 20.246C43.134 19.854 42.952 19.3453 42.952 18.72C42.9427 18.1973 43.064 17.7353 43.316 17.334C43.568 16.9233 43.9227 16.606 44.38 16.382C44.8467 16.1487 45.3973 16.032 46.032 16.032C46.6573 16.032 47.1987 16.1487 47.656 16.382C48.1227 16.6153 48.482 16.9373 48.734 17.348C48.9953 17.7587 49.1307 18.2253 49.14 18.748H47.908C47.908 18.4773 47.838 18.2113 47.698 17.95C47.558 17.6793 47.3433 17.46 47.054 17.292C46.774 17.124 46.4193 17.04 45.99 17.04C45.458 17.0307 45.0193 17.166 44.674 17.446C44.338 17.726 44.17 18.1133 44.17 18.608C44.17 19.028 44.2867 19.35 44.52 19.574C44.7627 19.798 45.0987 19.9847 45.528 20.134C45.9573 20.274 46.452 20.4373 47.012 20.624C47.4787 20.792 47.8987 20.988 48.272 21.212C48.6453 21.436 48.9347 21.7253 49.14 22.08C49.3547 22.4347 49.462 22.8873 49.462 23.438C49.462 23.9047 49.3407 24.348 49.098 24.768C48.8553 25.1787 48.4867 25.5147 47.992 25.776C47.5067 26.0373 46.8953 26.168 46.158 26.168ZM53.9018 26.168C53.2391 26.168 52.6511 26.0187 52.1377 25.72C51.6244 25.412 51.2184 24.9873 50.9197 24.446C50.6304 23.9047 50.4857 23.2653 50.4857 22.528C50.4857 21.8 50.6304 21.1653 50.9197 20.624C51.2091 20.0733 51.6104 19.6487 52.1237 19.35C52.6464 19.042 53.2484 18.888 53.9297 18.888C54.6018 18.888 55.1804 19.042 55.6657 19.35C56.1604 19.6487 56.5384 20.0453 56.7997 20.54C57.0611 21.0347 57.1917 21.5667 57.1917 22.136C57.1917 22.2387 57.1871 22.3413 57.1778 22.444C57.1778 22.5467 57.1778 22.6633 57.1778 22.794H51.6477C51.6757 23.326 51.7971 23.7693 52.0117 24.124C52.2357 24.4693 52.5111 24.7307 52.8377 24.908C53.1737 25.0853 53.5284 25.174 53.9018 25.174C54.3871 25.174 54.7931 25.062 55.1197 24.838C55.4464 24.614 55.6844 24.3107 55.8337 23.928H56.9957C56.8091 24.572 56.4498 25.1087 55.9178 25.538C55.3951 25.958 54.7231 26.168 53.9018 26.168ZM53.9018 19.882C53.3417 19.882 52.8424 20.0547 52.4037 20.4C51.9744 20.736 51.7271 21.2307 51.6617 21.884H56.0298C56.0018 21.2587 55.7871 20.7687 55.3858 20.414C54.9844 20.0593 54.4898 19.882 53.9018 19.882ZM60.7805 26.168C60.2018 26.168 59.7211 26.07 59.3385 25.874C58.9558 25.678 58.6711 25.4167 58.4845 25.09C58.2978 24.7633 58.2045 24.4087 58.2045 24.026C58.2045 23.3167 58.4751 22.7707 59.0165 22.388C59.5578 22.0053 60.2951 21.814 61.2285 21.814H63.1045V21.73C63.1045 21.1233 62.9458 20.666 62.6285 20.358C62.3111 20.0407 61.8865 19.882 61.3545 19.882C60.8971 19.882 60.5005 19.9987 60.1645 20.232C59.8378 20.456 59.6325 20.7873 59.5485 21.226H58.3445C58.3911 20.722 58.5591 20.2973 58.8485 19.952C59.1471 19.6067 59.5158 19.3453 59.9545 19.168C60.3931 18.9813 60.8598 18.888 61.3545 18.888C62.3251 18.888 63.0531 19.1493 63.5385 19.672C64.0331 20.1853 64.2805 20.8713 64.2805 21.73V26H63.2305L63.1605 24.754C62.9645 25.146 62.6751 25.482 62.2925 25.762C61.9191 26.0327 61.4151 26.168 60.7805 26.168ZM60.9625 25.174C61.4105 25.174 61.7931 25.0573 62.1105 24.824C62.4371 24.5907 62.6845 24.2873 62.8525 23.914C63.0205 23.5407 63.1045 23.1487 63.1045 22.738V22.724H61.3265C60.6358 22.724 60.1458 22.8453 59.8565 23.088C59.5765 23.3213 59.4365 23.6153 59.4365 23.97C59.4365 24.334 59.5671 24.628 59.8285 24.852C60.0991 25.0667 60.4771 25.174 60.9625 25.174ZM65.7647 26V19.056H66.8287L66.9267 20.386C67.1413 19.9287 67.468 19.5647 67.9067 19.294C68.3453 19.0233 68.8867 18.888 69.5307 18.888V20.12H69.2087C68.798 20.12 68.42 20.1947 68.0747 20.344C67.7293 20.484 67.454 20.7267 67.2487 21.072C67.0433 21.4173 66.9407 21.8933 66.9407 22.5V26H65.7647ZM73.5028 26.168C72.8402 26.168 72.2428 26.0187 71.7108 25.72C71.1882 25.412 70.7728 24.9873 70.4648 24.446C70.1662 23.8953 70.0168 23.256 70.0168 22.528C70.0168 21.8 70.1662 21.1653 70.4648 20.624C70.7728 20.0733 71.1882 19.6487 71.7108 19.35C72.2428 19.042 72.8402 18.888 73.5028 18.888C74.3242 18.888 75.0148 19.1027 75.5748 19.532C76.1442 19.9613 76.5035 20.5353 76.6528 21.254H75.4488C75.3555 20.8247 75.1268 20.4933 74.7628 20.26C74.3988 20.0173 73.9742 19.896 73.4888 19.896C73.0968 19.896 72.7282 19.994 72.3828 20.19C72.0375 20.386 71.7575 20.68 71.5428 21.072C71.3282 21.464 71.2208 21.9493 71.2208 22.528C71.2208 23.1067 71.3282 23.592 71.5428 23.984C71.7575 24.376 72.0375 24.6747 72.3828 24.88C72.7282 25.076 73.0968 25.174 73.4888 25.174C73.9742 25.174 74.3988 25.0573 74.7628 24.824C75.1268 24.5813 75.3555 24.2407 75.4488 23.802H76.6528C76.5128 24.502 76.1582 25.0713 75.5888 25.51C75.0195 25.9487 74.3242 26.168 73.5028 26.168ZM78.0152 26V15.92H79.1912V20.246C79.4246 19.8167 79.7559 19.4853 80.1852 19.252C80.6146 19.0093 81.0812 18.888 81.5852 18.888C82.3879 18.888 83.0319 19.14 83.5172 19.644C84.0026 20.1387 84.2452 20.904 84.2452 21.94V26H83.0832V22.066C83.0832 20.6193 82.4999 19.896 81.3332 19.896C80.7266 19.896 80.2179 20.1153 79.8072 20.554C79.3966 20.9833 79.1912 21.5993 79.1912 22.402V26H78.0152Z" fill="#8F9BBA"/>
<circle cx="25" cy="20" r="4.3" stroke="#2B3674" stroke-width="1.4"/>
<line x1="30.0101" y1="26" x2="28" y2="23.99" stroke="#2B3674" stroke-width="1.4" stroke-linecap="round"/>
</svg>
